<svg xmlns="http://www.w3.org/2000/svg" version="1.1" xmlns:xlink="http://www.w3.org/1999/xlink" xmlns:svgjs="http://svgjs.dev/svgjs" width="1500" height="1500" viewBox="0 0 1500 1500"><rect width="1500" height="1500" fill="#c23a3a"></rect><g transform="matrix(0.6666666666666666,0,0,0.6666666666666666,245.89182574376883,601.8906977018632)"><svg viewBox="0 0 402 119" data-background-color="#c23a3a" preserveAspectRatio="xMidYMid meet" height="444" width="1500" xmlns="http://www.w3.org/2000/svg" xmlns:xlink="http://www.w3.org/1999/xlink"><g id="tight-bounds" transform="matrix(1,0,0,1,6.19885308166522,0.043942477967163995)"><svg viewBox="0 0 395.52 118.91211504406567" height="118.91211504406567" width="395.52"><g><svg viewBox="0 0 677.8058053877313 203.78064802741073" height="118.91211504406567" width="395.52"><g transform="matrix(1,0,0,1,280.3082053877314,0)"><svg viewBox="0 0 397.4975999999999 203.78064802741073" height="203.78064802741073" width="397.4975999999999"><g id="textblocktransform"><svg viewBox="0 0 397.4975999999999 203.78064802741073" height="203.78064802741073" width="397.4975999999999" id="textblock"><g><rect width="397.4975999999999" height="13.238091040513394" x="0" y="162.38923781366245" fill="#000000" opacity="1" stroke-width="0" stroke="transparent" fill-opacity="1" class="rect-yte-0" data-fill-palette-color="primary" rx="1%" id="yte-0" data-palette-color="#000000"></rect></g><g transform="matrix(1,0,0,1,0.9887999999999693,0)"><svg viewBox="0 0 395.52 146.7946279491833" height="146.7946279491833" width="395.52"><g transform="matrix(1,0,0,1,0,0)"><svg width="395.52" viewBox="-3.95 -38.7 110.19 40.900000000000006" height="146.7946279491833" data-palette-color="#000000"><path d="M26.1-37L26.1-37Q24.25-35.55 21.63-31.23 19-26.9 15.83-20.65 12.65-14.4 12.55-14.2L12.55-14.2Q12.2-13.6 11.3-11.9 10.4-10.2 9.88-9.22 9.35-8.25 8.33-6.58 7.3-4.9 6.5-3.85 5.7-2.8 4.55-1.53 3.4-0.25 2.33 0.48 1.25 1.2-0.1 1.7-1.45 2.2-2.8 2.2L-2.8 2.2Q-3.95 2.2-3.95 1.75L-3.95 1.75Q-3.95 1.6-3.8 1.45-3.65 1.3-3.5 1.2L-3.5 1.2-3.35 1.15Q-1.2-0.2 1.95-4.65 5.1-9.1 7.2-12.9L7.2-12.9 9.25-16.65Q11.55-21.05 13.78-24.73 16-28.4 17.53-30.45 19.05-32.5 20.23-33.93 21.4-35.35 22-35.85L22-35.85 22.55-36.35Q22.7-36.5 22.7-36.65L22.7-36.65Q22.7-37.1 21.2-37.1L21.2-37.1Q19.6-37.1 18.1-36.3 16.6-35.5 15.58-34.35 14.55-33.2 13.75-32.02 12.95-30.85 12.6-30.05L12.6-30.05 12.2-29.25Q12-28.45 11.65-28.45L11.65-28.45Q10.8-28.45 10.8-30.65L10.8-30.65Q10.8-33.35 12.58-35.2 14.35-37.05 16.82-37.77 19.3-38.5 22.2-38.5L22.2-38.5Q23.95-38.5 26.05-38.2L26.05-38.2Q26.65-38.1 26.65-37.75 26.65-37.4 26.1-37ZM34.25-38.7L34.25-38.7Q40.75-38.7 44.57-34.65 48.4-30.6 48.4-23.65L48.4-23.65Q48.4-19.45 46.34-15.03 44.3-10.6 40.9-7 37.5-3.4 32.59-1.1 27.7 1.2 22.45 1.2L22.45 1.2Q21.45 1.2 20.5 1.13 19.55 1.05 19.15 1L19.15 1 18.7 0.9Q17.9 0.7 17.9 0.1L17.9 0.1 18.05-0.4Q18.55-1.6 19.47-3.7 20.4-5.8 23.77-11.95 27.15-18.1 31-23.85L31-23.85Q34.59-29.25 36.7-31.35L36.7-31.35Q37.4-32.1 37.84-32.1L37.84-32.1Q38.2-32.1 38.2-31.5L38.2-31.5Q38.2-31.1 38.15-31L38.15-31Q37.7-29.05 34.95-23.65L34.95-23.65Q25.85-7.55 23.55-1.25L23.55-1.25Q23.5-1.1 23.5-0.9L23.5-0.9Q23.5-0.4 23.9-0.35L23.9-0.35Q24.2-0.3 24.8-0.3L24.8-0.3Q29.2-0.3 33.87-4.55 38.55-8.8 41.59-15.18 44.65-21.55 44.65-27.3L44.65-27.3Q44.65-31.5 42.25-34.33 39.84-37.15 35.75-37.15L35.75-37.15Q33.65-37.15 32.27-36 30.9-34.85 30.9-32.65L30.9-32.65Q30.9-30.9 31.95-29.05L31.95-29.05Q32.05-28.75 32.05-28.45L32.05-28.45Q32.05-28.05 31.75-28.05L31.75-28.05Q31.6-28.05 31.3-28.2L31.3-28.2Q30.15-28.8 28.75-30.7 27.35-32.6 27.35-34.65L27.35-34.65Q27.35-36.25 28.55-37.2 29.75-38.15 31.15-38.43 32.55-38.7 34.25-38.7ZM56.44-10.35L56.44-10.35Q56.04-10.35 56.04-10.65L56.04-10.65Q56.04-10.8 56.19-11.05L56.19-11.05Q59.14-15.65 59.14-17.35L59.14-17.35Q59.14-17.8 58.79-17.8L58.79-17.8Q57.29-17.8 51.74-11L51.74-11Q50.09-8.9 48.67-6.65 47.24-4.4 46.69-3.2L46.69-3.2 46.09-2.05Q45.49-0.85 44.24 0.18 42.99 1.2 41.64 1.2L41.64 1.2Q40.94 1.2 40.94 0.85L40.94 0.85Q40.94 0.55 41.37-0.4 41.79-1.35 42.39-2.5 42.99-3.65 43.59-4.75 44.19-5.85 44.59-6.6L44.59-6.6 45.04-7.35 50.29-16.5Q53.34-22.25 56.69-22.25L56.69-22.25Q57.14-22.25 57.14-21.9L57.14-21.9Q57.14-21.45 54.97-18.18 52.79-14.9 52.44-14L52.44-14Q52.34-13.7 52.34-13.65L52.34-13.65Q52.34-13.55 52.44-13.55 52.54-13.55 52.79-13.8L52.79-13.8Q56.54-18.05 60.74-21.35L60.74-21.35Q60.99-21.6 61.84-22.08 62.69-22.55 63.34-22.55L63.34-22.55Q64.29-22.55 64.29-20.9L64.29-20.9Q64.29-19.1 63.09-16.6 61.89-14.1 59.84-12.2L59.84-12.2 59.64-12Q59.44-11.85 59.22-11.68 58.99-11.5 58.64-11.25 58.29-11 57.94-10.83 57.59-10.65 57.19-10.5 56.79-10.35 56.44-10.35ZM73.04-3.15L73.04-3.15Q68.89 0.65 67.34 0.65L67.34 0.65Q66.64 0.65 66.64-0.15L66.64-0.15Q66.64-1.15 67.52-3.2 68.39-5.25 69.29-6.8L69.29-6.8 70.19-8.35Q70.39-8.7 70.39-8.8 70.39-8.9 70.29-8.9L70.29-8.9Q70.09-8.9 69.54-8.35L69.54-8.35Q68.04-6.7 66.12-4.83 64.19-2.95 62.99-1.9L62.99-1.9 61.84-0.9Q59.89 0.6 58.84 0.6L58.84 0.6Q57.74 0.6 57.74-1.1L57.74-1.1Q57.74-1.95 58.22-3.7 58.69-5.45 58.94-6.05L58.94-6.05Q60.09-8.85 61.82-11.5 63.54-14.15 65.89-16.57 68.24-19 71.37-20.5 74.49-22 77.84-22L77.84-22Q80.64-22 80.64-21.15L80.64-21.15Q80.64-20.65 79.39-20.65L79.39-20.65Q74.79-20.65 70.77-16.73 66.74-12.8 64.24-7.7L64.24-7.7Q63.54-6.3 63.54-5.35L63.54-5.35Q63.54-4.8 63.89-4.8L63.89-4.8Q64.49-4.8 65.44-5.65L65.44-5.65Q66.04-6.2 67.07-7.1 68.09-8 70.39-10.55 72.69-13.1 74.04-15.3L74.04-15.3Q74.24-15.7 74.67-16.25 75.09-16.8 76.29-17.73 77.49-18.65 78.69-18.65L78.69-18.65Q79.34-18.65 79.34-18.3L79.34-18.3Q79.34-18.2 79.19-17.95L79.19-17.95Q78.99-17.55 78.07-15.95 77.14-14.35 76.34-12.93 75.54-11.5 74.64-9.83 73.74-8.15 73.22-6.95 72.69-5.75 72.69-5.35L72.69-5.35Q72.69-5.05 72.94-5.05L72.94-5.05Q73.69-5.05 76.59-7.95L76.59-7.95Q78.79-10.25 81.74-13.6L81.74-13.6Q81.89-13.75 81.99-13.75 82.09-13.75 82.09-13.55L82.09-13.55Q82.09-12.6 81.34-11.7L81.34-11.7Q76.44-6.25 73.04-3.15ZM97.49-9.55L97.24-9.4Q94.49-6 92.16-3.48 89.84-0.95 88.89-0.1L88.89-0.1 87.94 0.7Q87.14 1.35 86.69 1.35L86.69 1.35Q86.14 1.35 86.14 0.45L86.14 0.45Q86.14-1.7 88.44-9.1L88.44-9.1 88.14-8.95Q85.59-5.8 83.36-3.38 81.14-0.95 80.19-0.1L80.19-0.1 79.24 0.7Q78.44 1.35 77.99 1.35L77.99 1.35Q77.44 1.35 77.44 0.45L77.44 0.45Q77.44-2.05 79.64-8.72 81.84-15.4 83.94-19.35L83.94-19.35Q84.49-20.4 85.54-21.15 86.59-21.9 87.79-21.9L87.79-21.9Q88.14-21.9 88.14-21.6 88.14-21.3 87.74-20.5L87.74-20.5Q86.34-17.6 84.29-12.13 82.24-6.65 82.24-4.55L82.24-4.55Q82.24-4.3 82.34-4.3L82.34-4.3Q82.54-4.3 83.04-4.85L83.04-4.85Q83.64-5.4 84.59-6.35 85.54-7.3 87.49-9.73 89.44-12.15 90.24-14L90.24-14 92.64-19.35Q93.44-20.65 94.46-21.28 95.49-21.9 96.29-21.9L96.29-21.9Q96.89-21.9 96.89-21.6L96.89-21.6Q96.89-21.4 96.44-20.5L96.44-20.5Q92.09-11.45 90.99-5.05L90.99-5.05Q90.94-4.85 90.94-4.65L90.94-4.65Q90.94-4.35 91.09-4.35L91.09-4.35Q91.44-4.35 93.59-6.68 95.74-9 96.49-10.2L96.49-10.2Q96.59-10.4 96.59-10.6L96.59-10.6Q96.39-11.05 96.39-11.8L96.39-11.8Q96.39-14.8 99.41-18.48 102.44-22.15 105.54-23.3L105.54-23.3Q105.84-23.4 105.94-23.4L105.94-23.4Q106.24-23.4 106.24-23.15L106.24-23.15Q106.19-21.75 98.69-11.1L98.69-11.1Q98.54-10.9 98.54-10.8L98.54-10.8Q98.54-10.6 98.69-10.55L98.69-10.55Q99.29-10.25 99.89-10.25L99.89-10.25Q102.14-10.25 105.29-14L105.29-14Q105.39-14.1 105.44-14.1L105.44-14.1Q105.69-14.1 105.69-13.55 105.69-13 104.49-11.65L104.49-11.65Q102.29-9.15 99.44-9.15L99.44-9.15Q98.44-9.15 97.49-9.55L97.49-9.55Z" opacity="1" transform="matrix(1,0,0,1,0,0)" fill="#000000" class="wordmark-text-0" data-fill-palette-color="primary" id="text-0"></path></svg></g></svg></g><g transform="matrix(1,0,0,1,0,191.22193871865497)"><svg viewBox="0 0 232.209792 12.55870930875576" height="12.55870930875576" width="232.209792"><g transform="matrix(1,0,0,1,0,0)"><svg width="232.209792" viewBox="1.71 -31.98 762.8 41.26" height="12.55870930875576" data-palette-color="#000000"><path d="M7.18 0L20.61 0Q20.61-1.07 19.82-1.22L19.82-1.22Q19.58-1.27 19.34-1.27L19.34-1.27 16.02-1.27 16.02-28.03 18.85-28.03Q22.8-28.03 24.12-23.24L24.12-23.24Q24.12-23.05 24.17-22.95L24.17-22.95 24.95-19.68 26.32-19.68 26.07-29.3 1.95-29.3 1.71-19.68 3.08-19.68 3.86-22.95Q5.42-27.73 9.18-28.03L9.18-28.03 11.82-28.03 11.82-1.27 7.18-1.27 7.18 0ZM40.43-1.22L40.43-1.22 36.91-1.22 36.91-10.94Q36.91-15.38 39.65-18.07L39.65-18.07Q40.72-19.09 41.45-19.14L41.45-19.14Q42.28-19.14 42.97-17.92L42.97-17.92Q43.75-16.55 44.43-16.36L44.43-16.36Q44.72-16.26 45.02-16.26L45.02-16.26Q46.48-16.26 46.87-17.68L46.87-17.68Q46.97-17.97 46.97-18.26L46.97-18.26Q46.97-20.46 44.72-20.95L44.72-20.95Q44.24-21.04 43.8-21.04L43.8-21.04Q40.87-21.04 38.57-18.55L38.57-18.55Q37.5-17.38 36.86-15.92L36.86-15.92 36.67-20.75 29.59-20.75 29.59-19.53 33.25-19.53 33.25-4.15Q33.25-1.9 31.98-1.46L31.98-1.46Q31.25-1.22 29.59-1.22L29.59-1.22 29.59 0 41.65 0Q41.65-1.07 40.92-1.17L40.92-1.17Q40.72-1.22 40.43-1.22ZM66.3 0.49L66.3 0.49Q70.06 0.49 70.45-4.05L70.45-4.05Q70.5-4.35 70.5-4.59L70.5-4.59 69.23-4.64Q68.89-1.07 67.33-1.03L67.33-1.03Q66.06-1.12 66.01-3.56L66.01-3.56 66.01-13.87Q66.01-20.85 59.03-21.24L59.03-21.24Q58.59-21.24 58.15-21.24L58.15-21.24Q52.68-21.24 50.83-18.7L50.83-18.7Q50.24-17.87 50.24-17.04L50.24-17.04Q50.24-15.53 51.66-15.28L51.66-15.28Q51.9-15.23 52.14-15.23L52.14-15.23Q53.27-15.23 53.8-16.65L53.8-16.65Q54.49-18.46 54.73-18.8L54.73-18.8Q55.66-20.02 57.61-20.02L57.61-20.02Q62.2-19.73 62.35-14.99L62.35-14.99 62.35-11.91Q50.87-11.91 49.21-7.13L49.21-7.13Q48.92-6.2 48.92-5.13L48.92-5.13Q48.92-1.42 52.19-0.05L52.19-0.05Q53.51 0.49 54.98 0.49L54.98 0.49Q58.54 0.49 60.98-1.95L60.98-1.95Q61.86-2.88 62.3-3.91L62.3-3.91Q62.89 0.44 66.3 0.49ZM56.59-1.46L56.59-1.46Q53.61-1.46 52.92-4.44L52.92-4.44Q52.78-5.13 52.78-5.96L52.78-5.96Q52.78-9.23 56.54-10.11L56.54-10.11Q58.54-10.55 62.35-10.6L62.35-10.6 62.35-6.69Q61.62-3.32 58.78-1.95L58.78-1.95Q57.66-1.46 56.59-1.46ZM81.73-1.22L81.73-1.22 79.53-1.22 79.53-11.77Q79.68-16.31 82.76-18.31L82.76-18.31Q84.07-19.14 85.44-19.14L85.44-19.14Q88.42-19.14 89.49-16.36L89.49-16.36Q89.93-15.23 89.93-13.82L89.93-13.82 89.93-4.15Q89.93-1.9 88.66-1.46L88.66-1.46Q87.93-1.22 86.27-1.22L86.27-1.22 86.27 0 97.26 0Q97.26-1.07 96.53-1.17L96.53-1.17Q96.33-1.22 96.04-1.22L96.04-1.22 93.6-1.22 93.6-13.33Q93.6-18.21 90.23-20.31L90.23-20.31Q88.66-21.24 86.86-21.24L86.86-21.24Q83.24-21.24 80.9-18.36L80.9-18.36Q80.02-17.24 79.48-15.87L79.48-15.87 79.29-20.75 72.21-20.75 72.21-19.53 75.87-19.53 75.87-4.15Q75.87-1.9 74.6-1.46L74.6-1.46Q73.87-1.22 72.21-1.22L72.21-1.22 72.21 0 82.95 0Q82.95-1.07 82.22-1.17L82.22-1.17Q82.02-1.22 81.73-1.22ZM107.75-0.83L107.75-0.83Q111.12-0.83 112.29-2.88L112.29-2.88Q112.73-3.61 112.73-4.49L112.73-4.49Q112.73-6.54 109.76-8.01L109.76-8.01Q109.12-8.35 107.66-8.98L107.66-8.98Q103.65-10.64 102.33-12.11L102.33-12.11Q100.92-13.72 100.92-15.87L100.92-15.87Q100.92-19.24 104.63-20.61L104.63-20.61Q106.34-21.24 108.34-21.24L108.34-21.24Q111.56-21.24 113.91-19.87L113.91-19.87Q113.91-21.29 114.59-21.48L114.59-21.48Q114.88-21.53 115.22-21.53L115.22-21.53 115.22-15.43 113.95-15.43Q113.86-19.92 108.97-19.97L108.97-19.97Q105.31-19.97 104.43-17.82L104.43-17.82Q104.19-17.24 104.19-16.6L104.19-16.6Q104.19-14.5 107.22-13.04L107.22-13.04Q107.9-12.7 109.37-12.11L109.37-12.11Q113.32-10.5 114.64-9.03L114.64-9.03Q116.05-7.47 116.05-5.32L116.05-5.32Q116.05-1.37 111.86-0.05L111.86-0.05Q110.24 0.49 108.34 0.49L108.34 0.49Q104.82 0.44 102.24-1.27L102.24-1.27Q102.24 0 101.6 0.2L101.6 0.2Q101.31 0.24 100.92 0.24L100.92 0.24 100.92-7.18 102.28-7.18Q102.38-0.88 107.75-0.83ZM130.26-1.22L130.26-1.22 126.84-1.22 126.84-19.53 132.46-19.53 132.46-20.75 126.84-20.75 126.84-21.04Q126.84-29.39 129.33-30.52L129.33-30.52Q129.87-30.76 130.51-30.76L130.51-30.76Q132.02-30.76 133.04-28.96L133.04-28.96Q133.92-27.39 134.31-27.1L134.31-27.1Q134.7-26.81 135.19-26.81L135.19-26.81Q136.8-26.81 137.1-28.17L137.1-28.17Q137.15-28.42 137.15-28.61L137.15-28.61Q137.15-30.42 134.7-31.45L134.7-31.45Q133.29-31.98 131.53-31.98L131.53-31.98Q126.94-31.98 124.69-28.17L124.69-28.17Q123.18-25.54 123.18-21.53L123.18-21.53 123.18-20.75 119.76-20.75 119.76-19.53 123.18-19.53 123.18-4.15Q123.18-1.9 121.91-1.46L121.91-1.46Q121.18-1.22 119.52-1.22L119.52-1.22 119.52 0 131.48 0Q131.48-1.07 130.75-1.17L130.75-1.17Q130.55-1.22 130.26-1.22ZM138.95-10.4L138.95-10.4Q138.95-17.97 143.1-19.63L143.1-19.63Q144.17-20.02 145.35-20.02L145.35-20.02Q150.77-20.02 151.65-13.18L151.65-13.18Q151.79-12.01 151.79-10.6L151.79-10.6Q151.79-2.39 147.3-0.98L147.3-0.98Q146.42-0.73 145.49-0.73L145.49-0.73Q140.56-0.73 139.29-6.59L139.29-6.59Q138.95-8.3 138.95-10.4ZM145.49-21.24L145.49-21.24Q140.81-21.24 137.68-18.02L137.68-18.02Q134.8-15.04 134.8-10.6L134.8-10.6Q134.8-4.44 139.29-1.37L139.29-1.37Q142.03 0.49 145.35 0.49L145.35 0.49Q150.03 0.49 153.11-2.83L153.11-2.83Q155.94-5.86 155.94-10.4L155.94-10.4Q155.94-16.55 151.4-19.53L151.4-19.53Q148.72-21.24 145.49-21.24ZM170.3-1.22L170.3-1.22 166.78-1.22 166.78-10.94Q166.78-15.38 169.51-18.07L169.51-18.07Q170.59-19.09 171.32-19.14L171.32-19.14Q172.15-19.14 172.83-17.92L172.83-17.92Q173.62-16.55 174.3-16.36L174.3-16.36Q174.59-16.26 174.88-16.26L174.88-16.26Q176.35-16.26 176.74-17.68L176.74-17.68Q176.84-17.97 176.84-18.26L176.84-18.26Q176.84-20.46 174.59-20.95L174.59-20.95Q174.1-21.04 173.66-21.04L173.66-21.04Q170.73-21.04 168.44-18.55L168.44-18.55Q167.37-17.38 166.73-15.92L166.73-15.92 166.54-20.75 159.46-20.75 159.46-19.53 163.12-19.53 163.12-4.15Q163.12-1.9 161.85-1.46L161.85-1.46Q161.12-1.22 159.46-1.22L159.46-1.22 159.46 0 171.52 0Q171.52-1.07 170.78-1.17L170.78-1.17Q170.59-1.22 170.3-1.22ZM188.07-1.22L188.07-1.22 185.87-1.22 185.87-11.77Q186.02-16.06 188.85-18.16L188.85-18.16Q190.17-19.14 191.48-19.14L191.48-19.14Q193.93-19.14 194.85-16.46L194.85-16.46Q195.24-15.28 195.24-13.82L195.24-13.82 195.24-4.15Q195.24-1.9 194.17-1.46L194.17-1.46Q193.49-1.22 191.83-1.22L191.83-1.22 191.83 0 202.32 0Q202.32-1.07 201.59-1.17L201.59-1.17Q201.4-1.22 201.1-1.22L201.1-1.22 198.91-1.22 198.91-13.33 198.91-13.72Q199.69-17.29 202.37-18.7L202.37-18.7Q203.4-19.19 204.33-19.19L204.33-19.19Q206.82-19.19 207.84-16.6L207.84-16.6Q208.33-15.38 208.33-13.82L208.33-13.82 208.33-4.15Q208.33-1.9 207.26-1.46L207.26-1.46Q206.57-1.22 204.91-1.22L204.91-1.22 204.91 0 215.7 0Q215.7-1.07 214.97-1.17L214.97-1.17Q214.77-1.22 214.48-1.22L214.48-1.22 211.99-1.22 211.99-13.33Q211.99-18.36 208.72-20.36L208.72-20.36Q207.26-21.24 205.55-21.24L205.55-21.24Q201.84-21.24 199.59-17.77L199.59-17.77Q199-16.89 198.61-15.92L198.61-15.92Q197.73-19.78 194.76-20.9L194.76-20.9Q193.88-21.24 192.95-21.24L192.95-21.24Q189.43-21.24 187.14-18.26L187.14-18.26Q186.31-17.19 185.82-15.87L185.82-15.87 185.62-20.75 178.54-20.75 178.54-19.53 182.21-19.53 182.21-4.15Q182.21-1.9 180.94-1.46L180.94-1.46Q180.2-1.22 178.54-1.22L178.54-1.22 178.54 0 189.29 0Q189.29-1.03 188.55-1.17L188.55-1.17Q188.31-1.22 188.07-1.22ZM228.4-1.22L228.4-1.22 225.95-1.22 225.95-20.75 218.39-20.75 218.39-19.53 222.29-19.53 222.29-4.15Q222.29-1.9 220.78-1.42L220.78-1.42Q220.05-1.22 218.39-1.22L218.39-1.22 218.39 0 229.62 0Q229.62-1.07 228.88-1.17L228.88-1.17Q228.64-1.22 228.4-1.22ZM226.54-27.88L226.54-27.88Q226.54-29.59 225.03-30.32L225.03-30.32Q224.44-30.57 223.9-30.57L223.9-30.57Q222.19-30.57 221.46-29L221.46-29Q221.22-28.47 221.22-27.88L221.22-27.88Q221.22-26.07 222.83-25.39L222.83-25.39Q223.37-25.2 223.9-25.2L223.9-25.2Q225.61-25.2 226.3-26.76L226.3-26.76Q226.54-27.29 226.54-27.88ZM242.06-1.22L242.06-1.22 239.87-1.22 239.87-11.77Q240.01-16.31 243.09-18.31L243.09-18.31Q244.41-19.14 245.78-19.14L245.78-19.14Q248.75-19.14 249.83-16.36L249.83-16.36Q250.27-15.23 250.27-13.82L250.27-13.82 250.27-4.15Q250.27-1.9 249-1.46L249-1.46Q248.27-1.22 246.61-1.22L246.61-1.22 246.61 0 257.59 0Q257.59-1.07 256.86-1.17L256.86-1.17Q256.66-1.22 256.37-1.22L256.37-1.22 253.93-1.22 253.93-13.33Q253.93-18.21 250.56-20.31L250.56-20.31Q249-21.24 247.19-21.24L247.19-21.24Q243.58-21.24 241.23-18.36L241.23-18.36Q240.36-17.24 239.82-15.87L239.82-15.87 239.62-20.75 232.54-20.75 232.54-19.53 236.21-19.53 236.21-4.15Q236.21-1.9 234.94-1.46L234.94-1.46Q234.2-1.22 232.54-1.22L232.54-1.22 232.54 0 243.29 0Q243.29-1.07 242.55-1.17L242.55-1.17Q242.36-1.22 242.06-1.22ZM265.16-13.53L265.16-13.53Q265.26-19.97 270.04-20.02L270.04-20.02Q274.83-19.92 274.87-13.53L274.87-13.53Q274.78-6.88 270.04-6.84L270.04-6.84Q265.21-6.93 265.16-13.53ZM270.09-21.24L270.09-21.24Q265.7-21.24 263.11-18.41L263.11-18.41Q261.25-16.31 261.25-13.48L261.25-13.48Q261.25-9.77 264.87-7.32L264.87-7.32Q265.21-7.08 265.55-6.88L265.55-6.88Q262.42-6.88 261.64-4.2L261.64-4.2Q261.5-3.56 261.5-2.93L261.5-2.93Q261.54-0.34 263.6 0.93L263.6 0.93Q261.98 2.64 261.98 4.39L261.98 4.39Q261.98 7.08 265.16 8.4L265.16 8.4Q267.16 9.28 270.09 9.28L270.09 9.28Q277.51 9.28 279.9 5.66L279.9 5.66Q280.69 4.44 280.69 3.08L280.69 3.08Q280.69-1.12 275.85-1.76L275.85-1.76Q275.22-1.86 274.53-1.86L274.53-1.86 265.65-2.05Q263.4-2.2 263.35-4L263.35-4Q263.35-5.27 264.96-5.62L264.96-5.62Q265.3-5.66 265.7-5.66L265.7-5.66 269.99-5.62Q274.34-5.62 276.93-8.54L276.93-8.54Q278.78-10.64 278.78-13.53L278.78-13.53Q278.73-17.19 275.95-19.38L275.95-19.38Q276.39-20.95 277.61-21.24L277.61-21.24Q277.8-21.29 278-21.29L278-21.29Q278.68-21.29 279.46-20.56L279.46-20.56Q280-20.07 280.44-20.07L280.44-20.07Q281.66-20.36 281.86-21.63L281.86-21.63Q281.86-23.14 280.44-23.68L280.44-23.68Q279.9-23.88 279.37-23.88L279.37-23.88Q277.07-23.88 275.66-21.83L275.66-21.83Q275.12-21.04 274.83-20.12L274.83-20.12Q272.63-21.24 270.09-21.24ZM270.09 8.01L270.09 8.01Q265.26 8.01 263.99 5.47L263.99 5.47Q263.64 4.79 263.64 4.1L263.64 4.1Q263.69 2.78 264.82 1.46L264.82 1.46Q265.79 1.66 266.43 1.66L266.43 1.66 273.95 1.76Q277.61 1.81 278.2 3.42L278.2 3.42Q278.34 3.81 278.34 4.39L278.34 4.39Q278.34 6.54 274.34 7.52L274.34 7.52Q272.38 8.01 270.09 8.01ZM301.09-0.83L301.09-0.83Q304.46-0.83 305.63-2.88L305.63-2.88Q306.07-3.61 306.07-4.49L306.07-4.49Q306.07-6.54 303.09-8.01L303.09-8.01Q302.46-8.35 300.99-8.98L300.99-8.98Q296.99-10.64 295.67-12.11L295.67-12.11Q294.25-13.72 294.25-15.87L294.25-15.87Q294.25-19.24 297.97-20.61L297.97-20.61Q299.67-21.24 301.68-21.24L301.68-21.24Q304.9-21.24 307.24-19.87L307.24-19.87Q307.24-21.29 307.93-21.48L307.93-21.48Q308.22-21.53 308.56-21.53L308.56-21.53 308.56-15.43 307.29-15.43Q307.19-19.92 302.31-19.97L302.31-19.97Q298.65-19.97 297.77-17.82L297.77-17.82Q297.53-17.24 297.53-16.6L297.53-16.6Q297.53-14.5 300.55-13.04L300.55-13.04Q301.24-12.7 302.7-12.11L302.7-12.11Q306.66-10.5 307.98-9.03L307.98-9.03Q309.39-7.47 309.39-5.32L309.39-5.32Q309.39-1.37 305.19-0.05L305.19-0.05Q303.58 0.49 301.68 0.49L301.68 0.49Q298.16 0.44 295.57-1.27L295.57-1.27Q295.57 0 294.94 0.2L294.94 0.2Q294.65 0.24 294.25 0.24L294.25 0.24 294.25-7.18 295.62-7.18Q295.72-0.88 301.09-0.83ZM313.3-10.16L313.3-10.16Q313.3-4.25 317.64-1.32L317.64-1.32Q320.33 0.49 323.74 0.49L323.74 0.49Q328.82 0.49 331.41-3.08L331.41-3.08Q332-3.91 332.34-4.74L332.34-4.74 331.07-5.18Q329.26-1.32 325.11-0.93L325.11-0.93Q324.72-0.88 324.33-0.88L324.33-0.88Q320.86-0.88 318.91-4.35L318.91-4.35Q317.45-6.98 317.45-10.6L317.45-10.6Q317.45-16.99 320.81-19.14L320.81-19.14Q322.23-20.02 323.94-20.02L323.94-20.02Q326.58-20.02 327.11-17.97L327.11-17.97Q327.21-17.58 327.36-16.75L327.36-16.75Q327.65-14.79 328.43-14.31L328.43-14.31Q328.92-14.06 329.51-14.01L329.51-14.01Q331.17-13.92 331.61-15.38L331.61-15.38Q331.7-15.72 331.7-16.02L331.7-16.02Q331.7-18.51 328.53-20.12L328.53-20.12Q326.28-21.24 323.65-21.24L323.65-21.24Q317.1-21.24 314.52-15.92L314.52-15.92Q313.3-13.38 313.3-10.16ZM344.98-1.22L344.98-1.22 341.47-1.22 341.47-10.94Q341.47-15.38 344.2-18.07L344.2-18.07Q345.28-19.09 346.01-19.14L346.01-19.14Q346.84-19.14 347.52-17.92L347.52-17.92Q348.3-16.55 348.99-16.36L348.99-16.36Q349.28-16.26 349.57-16.26L349.57-16.26Q351.04-16.26 351.43-17.68L351.43-17.68Q351.53-17.97 351.53-18.26L351.53-18.26Q351.53-20.46 349.28-20.95L349.28-20.95Q348.79-21.04 348.35-21.04L348.35-21.04Q345.42-21.04 343.13-18.55L343.13-18.55Q342.05-17.38 341.42-15.92L341.42-15.92 341.22-20.75 334.14-20.75 334.14-19.53 337.8-19.53 337.8-4.15Q337.8-1.9 336.53-1.46L336.53-1.46Q335.8-1.22 334.14-1.22L334.14-1.22 334.14 0 346.2 0Q346.2-1.07 345.47-1.17L345.47-1.17Q345.28-1.22 344.98-1.22ZM363.24-1.22L363.24-1.22 360.8-1.22 360.8-20.75 353.23-20.75 353.23-19.53 357.14-19.53 357.14-4.15Q357.14-1.9 355.62-1.42L355.62-1.42Q354.89-1.22 353.23-1.22L353.23-1.22 353.23 0 364.46 0Q364.46-1.07 363.73-1.17L363.73-1.17Q363.49-1.22 363.24-1.22ZM361.39-27.88L361.39-27.88Q361.39-29.59 359.87-30.32L359.87-30.32Q359.29-30.57 358.75-30.57L358.75-30.57Q357.04-30.57 356.31-29L356.31-29Q356.06-28.47 356.06-27.88L356.06-27.88Q356.06-26.07 357.67-25.39L357.67-25.39Q358.21-25.2 358.75-25.2L358.75-25.2Q360.46-25.2 361.14-26.76L361.14-26.76Q361.39-27.29 361.39-27.88ZM380.87 0.49L380.87 0.49Q385.16 0.49 388.09-2.73L388.09-2.73Q390.83-5.86 390.83-10.64L390.83-10.64Q390.83-16.02 387.9-19.04L387.9-19.04Q385.7-21.24 382.48-21.24L382.48-21.24Q377.15-21.24 374.91-16.46L374.91-16.46Q374.66-16.02 374.52-15.58L374.52-15.58 374.52-31.74 367.19-31.74 367.19-30.52 370.86-30.52 370.86-4.15Q370.86-1.9 369.59-1.46L369.59-1.46Q368.85-1.22 367.19-1.22L367.19-1.22 367.19 0 373.35 0 373.79-3.22Q375.89 0.15 380.13 0.44L380.13 0.44Q380.52 0.49 380.87 0.49ZM380.96-19.29L380.96-19.29Q384.97-19.29 386.19-14.4L386.19-14.4Q386.68-12.6 386.68-10.3L386.68-10.3Q386.68-3.42 382.97-1.37L382.97-1.37Q381.79-0.73 380.38-0.73L380.38-0.73Q376.72-0.73 375.2-4.64L375.2-4.64Q374.47-6.69 374.47-9.38L374.47-9.38Q374.47-15.28 377.4-17.92L377.4-17.92Q378.96-19.29 380.96-19.29ZM407.72 0.49L407.72 0.49Q412.02 0.49 414.95-2.73L414.95-2.73Q417.68-5.86 417.68-10.64L417.68-10.64Q417.68-16.02 414.75-19.04L414.75-19.04Q412.55-21.24 409.33-21.24L409.33-21.24Q404.01-21.24 401.76-16.46L401.76-16.46Q401.52-16.02 401.37-15.58L401.37-15.58 401.37-31.74 394.05-31.74 394.05-30.52 397.71-30.52 397.71-4.15Q397.71-1.9 396.44-1.46L396.44-1.46Q395.71-1.22 394.05-1.22L394.05-1.22 394.05 0 400.2 0 400.64-3.22Q402.74 0.15 406.99 0.44L406.99 0.44Q407.38 0.49 407.72 0.49ZM407.82-19.29L407.82-19.29Q411.82-19.29 413.04-14.4L413.04-14.4Q413.53-12.6 413.53-10.3L413.53-10.3Q413.53-3.42 409.82-1.37L409.82-1.37Q408.65-0.73 407.23-0.73L407.23-0.73Q403.57-0.73 402.05-4.64L402.05-4.64Q401.32-6.69 401.32-9.38L401.32-9.38Q401.32-15.28 404.25-17.92L404.25-17.92Q405.81-19.29 407.82-19.29ZM431.2-1.22L431.2-1.22 428.57-1.22 428.57-31.74 421.24-31.74 421.24-30.52 424.9-30.52 424.9-4.15Q424.9-1.9 423.63-1.46L423.63-1.46Q422.9-1.22 421.24-1.22L421.24-1.22 421.24 0 432.42 0Q432.42-1.07 431.69-1.17L431.69-1.17Q431.5-1.22 431.2-1.22ZM445.9-20.02L445.9-20.02Q449.32-20.02 450.44-17.14L450.44-17.14Q450.83-16.21 450.83-15.14L450.83-15.14Q450.83-12.7 448.49-12.16L448.49-12.16Q447.26-11.91 445.02-11.96L445.02-11.96 439.84-12.11Q440.09-17.72 443.5-19.43L443.5-19.43Q444.63-20.02 445.9-20.02ZM454.39-4.69L454.39-4.69 453.17-5.13Q451.46-1.42 447.66-0.93L447.66-0.93Q447.17-0.88 446.73-0.88L446.73-0.88Q441.6-0.88 440.28-6.98L440.28-6.98Q439.89-8.69 439.84-10.74L439.84-10.74 445.7-10.64Q451.66-10.55 453.37-11.77L453.37-11.77Q454.69-12.74 454.69-14.55L454.69-14.55Q454.69-17.87 451.32-19.82L451.32-19.82Q448.92-21.24 445.8-21.24L445.8-21.24Q439.7-21.24 437.06-16.16L437.06-16.16Q435.69-13.53 435.69-10.21L435.69-10.21Q435.69-4.15 440.04-1.22L440.04-1.22Q442.63 0.49 445.95 0.49L445.95 0.49Q451.22 0.49 453.71-3.32L453.71-3.32Q454.1-4 454.39-4.69ZM465.67-0.83L465.67-0.83Q469.04-0.83 470.21-2.88L470.21-2.88Q470.65-3.61 470.65-4.49L470.65-4.49Q470.65-6.54 467.67-8.01L467.67-8.01Q467.04-8.35 465.57-8.98L465.57-8.98Q461.57-10.64 460.25-12.11L460.25-12.11Q458.83-13.72 458.83-15.87L458.83-15.87Q458.83-19.24 462.55-20.61L462.55-20.61Q464.25-21.24 466.26-21.24L466.26-21.24Q469.48-21.24 471.82-19.87L471.82-19.87Q471.82-21.29 472.51-21.48L472.51-21.48Q472.8-21.53 473.14-21.53L473.14-21.53 473.14-15.43 471.87-15.43Q471.77-19.92 466.89-19.97L466.89-19.97Q463.23-19.97 462.35-17.82L462.35-17.82Q462.11-17.24 462.11-16.6L462.11-16.6Q462.11-14.5 465.13-13.04L465.13-13.04Q465.82-12.7 467.28-12.11L467.28-12.11Q471.24-10.5 472.55-9.03L472.55-9.03Q473.97-7.47 473.97-5.32L473.97-5.32Q473.97-1.37 469.77-0.05L469.77-0.05Q468.16 0.49 466.26 0.49L466.26 0.49Q462.74 0.44 460.15-1.27L460.15-1.27Q460.15 0 459.52 0.2L459.52 0.2Q459.22 0.24 458.83 0.24L458.83 0.24 458.83-7.18 460.2-7.18Q460.3-0.88 465.67-0.83ZM496.92-1.22L496.92-1.22 494.47-1.22 494.47-20.75 486.91-20.75 486.91-19.53 490.81-19.53 490.81-4.15Q490.81-1.9 489.3-1.42L489.3-1.42Q488.57-1.22 486.91-1.22L486.91-1.22 486.91 0 498.14 0Q498.14-1.07 497.4-1.17L497.4-1.17Q497.16-1.22 496.92-1.22ZM495.06-27.88L495.06-27.88Q495.06-29.59 493.55-30.32L493.55-30.32Q492.96-30.57 492.42-30.57L492.42-30.57Q490.71-30.57 489.98-29L489.98-29Q489.74-28.47 489.74-27.88L489.74-27.88Q489.74-26.07 491.35-25.39L491.35-25.39Q491.89-25.2 492.42-25.2L492.42-25.2Q494.13-25.2 494.82-26.76L494.82-26.76Q495.06-27.29 495.06-27.88ZM510.58-1.22L510.58-1.22 508.39-1.22 508.39-11.77Q508.53-16.31 511.61-18.31L511.61-18.31Q512.93-19.14 514.3-19.14L514.3-19.14Q517.27-19.14 518.35-16.36L518.35-16.36Q518.79-15.23 518.79-13.82L518.79-13.82 518.79-4.15Q518.79-1.9 517.52-1.46L517.52-1.46Q516.79-1.22 515.13-1.22L515.13-1.22 515.13 0 526.11 0Q526.11-1.07 525.38-1.17L525.38-1.17Q525.18-1.22 524.89-1.22L524.89-1.22 522.45-1.22 522.45-13.33Q522.45-18.21 519.08-20.31L519.08-20.31Q517.52-21.24 515.71-21.24L515.71-21.24Q512.1-21.24 509.75-18.36L509.75-18.36Q508.88-17.24 508.34-15.87L508.34-15.87 508.14-20.75 501.06-20.75 501.06-19.53 504.73-19.53 504.73-4.15Q504.73-1.9 503.46-1.46L503.46-1.46Q502.72-1.22 501.06-1.22L501.06-1.22 501.06 0 511.81 0Q511.81-1.07 511.07-1.17L511.07-1.17Q510.88-1.22 510.58-1.22ZM528.31-20.75L528.31-19.53 531.72-19.53 531.72-5.76Q532.07 0.34 537.34 0.54L537.34 0.54Q541.83 0.54 542.96-4.98L542.96-4.98Q542.96-5.03 542.96-5.08L542.96-5.08 541.64-5.32Q540.42-1.27 538.07-0.93L538.07-0.93Q535.44-1.03 535.39-4.69L535.39-4.69 535.39-19.53 542.96-19.53 542.96-20.75 535.39-20.75 535.39-26.42 531.72-25.39 531.72-20.75 528.31-20.75ZM549.3-10.4L549.3-10.4Q549.3-17.97 553.45-19.63L553.45-19.63Q554.52-20.02 555.7-20.02L555.7-20.02Q561.12-20.02 562-13.18L562-13.18Q562.14-12.01 562.14-10.6L562.14-10.6Q562.14-2.39 557.65-0.98L557.65-0.98Q556.77-0.73 555.84-0.73L555.84-0.73Q550.91-0.73 549.64-6.59L549.64-6.59Q549.3-8.3 549.3-10.4ZM555.84-21.24L555.84-21.24Q551.16-21.24 548.03-18.02L548.03-18.02Q545.15-15.04 545.15-10.6L545.15-10.6Q545.15-4.44 549.64-1.37L549.64-1.37Q552.38 0.49 555.7 0.49L555.7 0.49Q560.38 0.49 563.46-2.83L563.46-2.83Q566.29-5.86 566.29-10.4L566.29-10.4Q566.29-16.55 561.75-19.53L561.75-19.53Q559.07-21.24 555.84-21.24ZM587.04-0.83L587.04-0.83Q590.41-0.83 591.58-2.88L591.58-2.88Q592.02-3.61 592.02-4.49L592.02-4.49Q592.02-6.54 589.04-8.01L589.04-8.01Q588.41-8.35 586.94-8.98L586.94-8.98Q582.94-10.64 581.62-12.11L581.62-12.11Q580.2-13.72 580.2-15.87L580.2-15.87Q580.2-19.24 583.91-20.61L583.91-20.61Q585.62-21.24 587.63-21.24L587.63-21.24Q590.85-21.24 593.19-19.87L593.19-19.87Q593.19-21.29 593.88-21.48L593.88-21.48Q594.17-21.53 594.51-21.53L594.51-21.53 594.51-15.43 593.24-15.43Q593.14-19.92 588.26-19.97L588.26-19.97Q584.6-19.97 583.72-17.82L583.72-17.82Q583.47-17.24 583.47-16.6L583.47-16.6Q583.47-14.5 586.5-13.04L586.5-13.04Q587.19-12.7 588.65-12.11L588.65-12.11Q592.61-10.5 593.92-9.03L593.92-9.03Q595.34-7.47 595.34-5.32L595.34-5.32Q595.34-1.37 591.14-0.05L591.14-0.05Q589.53 0.49 587.63 0.49L587.63 0.49Q584.11 0.44 581.52-1.27L581.52-1.27Q581.52 0 580.89 0.2L580.89 0.2Q580.59 0.24 580.2 0.24L580.2 0.24 580.2-7.18 581.57-7.18Q581.67-0.88 587.04-0.83ZM603.39-10.4L603.39-10.4Q603.39-17.97 607.54-19.63L607.54-19.63Q608.62-20.02 609.79-20.02L609.79-20.02Q615.21-20.02 616.09-13.18L616.09-13.18Q616.24-12.01 616.24-10.6L616.24-10.6Q616.24-2.39 611.74-0.98L611.74-0.98Q610.86-0.73 609.94-0.73L609.94-0.73Q605.01-0.73 603.74-6.59L603.74-6.59Q603.39-8.3 603.39-10.4ZM609.94-21.24L609.94-21.24Q605.25-21.24 602.12-18.02L602.12-18.02Q599.24-15.04 599.24-10.6L599.24-10.6Q599.24-4.44 603.74-1.37L603.74-1.37Q606.47 0.49 609.79 0.49L609.79 0.49Q614.48 0.49 617.55-2.83L617.55-2.83Q620.39-5.86 620.39-10.4L620.39-10.4Q620.39-16.55 615.85-19.53L615.85-19.53Q613.16-21.24 609.94-21.24ZM633.91-1.22L633.91-1.22 631.27-1.22 631.27-31.74 623.95-31.74 623.95-30.52 627.61-30.52 627.61-4.15Q627.61-1.9 626.34-1.46L626.34-1.46Q625.61-1.22 623.95-1.22L623.95-1.22 623.95 0 635.13 0Q635.13-1.07 634.4-1.17L634.4-1.17Q634.2-1.22 633.91-1.22ZM661.59-1.22L661.59-1.22 659.15-1.22 659.15-20.75 651.48-20.75 651.48-19.53 655.49-19.53 655.49-8.98Q655.49-4.59 652.41-2.54L652.41-2.54Q651.05-1.61 649.58-1.61L649.58-1.61Q645.58-1.61 644.94-5.71L644.94-5.71Q644.84-6.4 644.84-7.18L644.84-7.18 644.84-20.75 637.42-20.75 637.42-19.53 641.18-19.53 641.18-7.91Q641.23 0.44 648.16 0.49L648.16 0.49Q651.83 0.49 654.17-2.49L654.17-2.49Q655.05-3.61 655.59-4.98L655.59-4.98 655.93 0 662.81 0Q662.81-1.07 662.08-1.17L662.08-1.17Q661.89-1.22 661.59-1.22ZM665.11-20.75L665.11-19.53 668.52-19.53 668.52-5.76Q668.87 0.34 674.14 0.54L674.14 0.54Q678.63 0.54 679.75-4.98L679.75-4.98Q679.75-5.03 679.75-5.08L679.75-5.08 678.44-5.32Q677.21-1.27 674.87-0.93L674.87-0.93Q672.23-1.03 672.19-4.69L672.19-4.69 672.19-19.53 679.75-19.53 679.75-20.75 672.19-20.75 672.19-26.42 668.52-25.39 668.52-20.75 665.11-20.75ZM691.47-1.22L691.47-1.22 689.03-1.22 689.03-20.75 681.46-20.75 681.46-19.53 685.37-19.53 685.37-4.15Q685.37-1.9 683.85-1.42L683.85-1.42Q683.12-1.22 681.46-1.22L681.46-1.22 681.46 0 692.69 0Q692.69-1.07 691.96-1.17L691.96-1.17Q691.71-1.22 691.47-1.22ZM689.61-27.88L689.61-27.88Q689.61-29.59 688.1-30.32L688.1-30.32Q687.52-30.57 686.98-30.57L686.98-30.57Q685.27-30.57 684.54-29L684.54-29Q684.29-28.47 684.29-27.88L684.29-27.88Q684.29-26.07 685.9-25.39L685.9-25.39Q686.44-25.2 686.98-25.2L686.98-25.2Q688.69-25.2 689.37-26.76L689.37-26.76Q689.61-27.29 689.61-27.88ZM700.26-10.4L700.26-10.4Q700.26-17.97 704.41-19.63L704.41-19.63Q705.48-20.02 706.65-20.02L706.65-20.02Q712.07-20.02 712.95-13.18L712.95-13.18Q713.1-12.01 713.1-10.6L713.1-10.6Q713.1-2.39 708.61-0.98L708.61-0.98Q707.73-0.73 706.8-0.73L706.8-0.73Q701.87-0.73 700.6-6.59L700.6-6.59Q700.26-8.3 700.26-10.4ZM706.8-21.24L706.8-21.24Q702.11-21.24 698.99-18.02L698.99-18.02Q696.11-15.04 696.11-10.6L696.11-10.6Q696.11-4.44 700.6-1.37L700.6-1.37Q703.33 0.49 706.65 0.49L706.65 0.49Q711.34 0.49 714.42-2.83L714.42-2.83Q717.25-5.86 717.25-10.4L717.25-10.4Q717.25-16.55 712.71-19.53L712.71-19.53Q710.02-21.24 706.8-21.24ZM730.19-1.22L730.19-1.22 727.99-1.22 727.99-11.77Q728.14-16.31 731.21-18.31L731.21-18.31Q732.53-19.14 733.9-19.14L733.9-19.14Q736.88-19.14 737.95-16.36L737.95-16.36Q738.39-15.23 738.39-13.82L738.39-13.82 738.39-4.15Q738.39-1.9 737.12-1.46L737.12-1.46Q736.39-1.22 734.73-1.22L734.73-1.22 734.73 0 745.71 0Q745.71-1.07 744.98-1.17L744.98-1.17Q744.79-1.22 744.49-1.22L744.49-1.22 742.05-1.22 742.05-13.33Q742.05-18.21 738.68-20.31L738.68-20.31Q737.12-21.24 735.31-21.24L735.31-21.24Q731.7-21.24 729.36-18.36L729.36-18.36Q728.48-17.24 727.94-15.87L727.94-15.87 727.74-20.75 720.66-20.75 720.66-19.53 724.33-19.53 724.33-4.15Q724.33-1.9 723.06-1.46L723.06-1.46Q722.32-1.22 720.66-1.22L720.66-1.22 720.66 0 731.41 0Q731.41-1.07 730.67-1.17L730.67-1.17Q730.48-1.22 730.19-1.22ZM756.21-0.83L756.21-0.83Q759.58-0.83 760.75-2.88L760.75-2.88Q761.19-3.61 761.19-4.49L761.19-4.49Q761.19-6.54 758.21-8.01L758.21-8.01Q757.58-8.35 756.11-8.98L756.11-8.98Q752.11-10.64 750.79-12.11L750.79-12.11Q749.37-13.72 749.37-15.87L749.37-15.87Q749.37-19.24 753.08-20.61L753.08-20.61Q754.79-21.24 756.79-21.24L756.79-21.24Q760.02-21.24 762.36-19.87L762.36-19.87Q762.36-21.29 763.04-21.48L763.04-21.48Q763.34-21.53 763.68-21.53L763.68-21.53 763.68-15.43 762.41-15.43Q762.31-19.92 757.43-19.97L757.43-19.97Q753.77-19.97 752.89-17.82L752.89-17.82Q752.64-17.24 752.64-16.6L752.64-16.6Q752.64-14.5 755.67-13.04L755.67-13.04Q756.36-12.7 757.82-12.11L757.82-12.11Q761.78-10.5 763.09-9.03L763.09-9.03Q764.51-7.47 764.51-5.32L764.51-5.32Q764.51-1.37 760.31-0.05L760.31-0.05Q758.7 0.49 756.79 0.49L756.79 0.49Q753.28 0.44 750.69-1.27L750.69-1.27Q750.69 0 750.06 0.2L750.06 0.2Q749.76 0.24 749.37 0.24L749.37 0.24 749.37-7.18 750.74-7.18Q750.84-0.88 756.21-0.83Z" opacity="1" transform="matrix(1,0,0,1,0,0)" fill="#000000" class="slogan-text-1" data-fill-palette-color="secondary" id="text-1"></path></svg></g></svg></g></svg></g></svg></g><g transform="matrix(1,0,0,1,0,3.701374654008802)"><svg viewBox="0 0 245.65351679999998 196.37789871939313" height="196.37789871939313" width="245.65351679999998"><g><svg xmlns:x="http://ns.adobe.com/Extensibility/1.0/" xmlns:i="http://ns.adobe.com/AdobeIllustrator/10.0/" xmlns:graph="http://ns.adobe.com/Graphs/1.0/" xmlns="http://www.w3.org/2000/svg" xmlns:xlink="http://www.w3.org/1999/xlink" version="1.1" x="0" y="0" viewBox="7 11.230427092500705 50.99957290749929 40.769572907499295" enable-background="new 0 0 64 64" xml:space="preserve" height="196.37789871939313" width="245.65351679999998" class="icon-icon-0" data-fill-palette-color="accent" id="icon-0"><g fill="#000000" data-fill-palette-color="accent"><path d="M51.758 11.816A2 2 0 0 0 48.93 11.816L17.816 42.929A2 2 0 0 0 17.23 44.343V50H8A1 1 0 1 0 8 52H24.888A2 2 0 0 0 26.302 51.414L57.414 20.301A2 2 0 0 0 57.414 17.473zM29.837 42.222L27.008 39.394 45.393 21.009 48.222 23.837zM24.059 48H21.23V45.171L25.594 40.808 28.423 43.636zM49.637 22.423L46.809 19.595 50.344 16.059 53.172 18.887z" fill="#000000" data-fill-palette-color="accent"></path></g></svg><g></g></g></svg></g></svg></g><defs></defs></svg><rect width="395.52" height="118.91211504406567" fill="none" stroke="none" visibility="hidden"></rect></g></svg></g></svg>